<svg version="1.1" xmlns="http://www.w3.org/2000/svg" viewBox="-282.2 -1691.7625 9039.693955610162 2834.025"><desc>Created with Snap</desc><defs></defs><g><g transform="matrix(24.6899,0,0,24.6899,6104.7504,-1508.0122)"><g><path d="M78.4,66.5c-5.5,4.8-9.9,15.2-9.9,15.2s-6.9-11.4-12.9-15.3c-9.5-6.1-13.6-6.2-13.6-6.2V65c0,0,7.8,1.2,11.7,4.6   c8.2,7.1,14.8,18.5,14.8,18.5S74.4,75,80.1,70.5C88.1,64.3,95,65,95,65v-4.8C95,60.1,85.1,60.7,78.4,66.5z" style="" fill="#143d59"></path><path d="M42,80c-6.4-3.6-17.8-4.3-17.8-4.3s8.7-10.1,10.5-17C37.5,47.9,36.2,44,36.2,44l-4.6,1.6c0,0,1.3,7.7-0.6,12.4   c-4.1,9.9-13,19.8-13,19.8s14.6,1.3,20.7,5.1c8.6,5.4,10.2,12,10.2,12l4.6-1.6C53.5,93.4,49.7,84.4,42,80z" style="" fill="#143d59"></path><path d="M35.3,36.8c11.3-0.9,14.6-3.4,14.6-3.4l-3-3.8c0,0-6.9,3.7-12.1,3.4c-10.9-0.6-23.3-5.6-23.3-5.6s3.5,14,1.8,20.9   C10.9,58.2,5,61.8,5,61.8l3,3.8c0,0,7.5-6.5,9.1-15.1c1.3-7.1-1.7-18-1.7-18S28,37.4,35.3,36.8z" style="" fill="#143d59"></path><path d="M37.4,17.8c7.3-1.1,16.7-7.4,16.7-7.4s-0.6,13.2,2.4,19.8c4.6,10.2,8,12.5,8,12.5l2.7-4c0,0-5.9-5.2-7.3-10.2   C56.9,18.2,57.7,5,57.7,5s-12.3,7.8-19.5,8.5c-10.2,1-15.6-3.3-15.6-3.3l-2.7,4.1C19.9,14.2,28.6,19.1,37.4,17.8z" style="" fill="#143d59"></path><path d="M65,60.5c0,0,3.1-7.2,7.4-10.1c9-6.1,21.9-9.7,21.9-9.7s-11.5-8.9-14.5-15.4c-4.2-9.1-1.9-15.6-1.9-15.6l-4.8-1.2   c0,0-1.9,9.6,2.2,17.4c3.4,6.4,12.5,13.2,12.5,13.2S75,42.9,69.6,47.8c-8.3,7.6-9.4,11.5-9.4,11.5L65,60.5z" style="" fill="#143d59"></path></g><desc>Created with Snap</desc><defs></defs></g><g><g transform="matrix(0.5,0,0,-0.5,0,0)"><path d="M733 1082L939 311L1103 1082L1278 1082L1013 0L872 0L661 774L455 0L313 0L50 1082L224 1082L392 330L593 1082L733 1082ZM1426 473L1426 591Q1426 827 1540 964Q1655 1102 1843 1102Q2031 1102 2145 968Q2260 834 2263 603L2263 489Q2263 254 2149 117Q2035 -20 1845 -20Q1657 -20 1543 113Q1430 246 1426 473ZM1603 592L1603 489Q1603 322 1668 226Q1734 131 1845 131Q2079 131 2086 469L2086 591Q2086 757 2020 853Q1954 950 1843 950Q1734 950 1668 853Q1603 757 1603 592ZM2937 1088L2938 916Q2901 923 2858 923Q2722 923 2668 774L2668 0L2491 0L2491 1082L2663 1082L2666 972Q2737 1102 2867 1102Q2909 1102 2937 1088ZM3680 0L3386 495L3292 387L3292 0L3115 0L3115 1536L3292 1536L3292 617L3629 1082L3841 1082L3497 630L3886 0L3680 0ZM4000 473L4000 591Q4000 827 4114 964Q4229 1102 4417 1102Q4605 1102 4719 968Q4834 834 4837 603L4837 489Q4837 254 4723 117Q4609 -20 4419 -20Q4231 -20 4117 113Q4004 246 4000 473ZM4177 592L4177 489Q4177 322 4242 226Q4308 131 4419 131Q4653 131 4660 469L4660 591Q4660 757 4594 853Q4528 950 4417 950Q4308 950 4242 853Q4177 757 4177 592ZM5621 0L5617 95Q5529 -20 5360 -20Q5213 -20 5138 81Q5063 183 5062 377L5062 1082L5238 1082L5238 390Q5238 137 5390 137Q5551 137 5612 281L5612 1082L5789 1082L5789 0L5621 0ZM6111 1344L6287 1344L6287 1082L6450 1082L6450 939L6287 939L6287 268Q6287 204 6308 171Q6329 138 6380 138Q6415 138 6451 150L6449 0Q6389 -20 6326 -20Q6221 -20 6166 55Q6111 130 6111 267L6111 939L5946 939L5946 1082L6111 1082L6111 1344ZM7913 596L7913 489Q7913 236 7822 108Q7731 -20 7558 -20Q7386 -20 7300 128L7291 0L7130 0L7130 1536L7306 1536L7306 963Q7393 1102 7556 1102Q7734 1102 7823 976Q7912 850 7913 596ZM7737 481L7737 590Q7737 782 7683 863Q7630 945 7510 945Q7373 945 7306 797L7306 282Q7372 136 7512 136Q7632 136 7684 220Q7736 304 7737 481ZM8695 0L8691 95Q8603 -20 8434 -20Q8287 -20 8212 81Q8137 183 8136 377L8136 1082L8312 1082L8312 390Q8312 137 8464 137Q8625 137 8686 281L8686 1082L8863 1082L8863 0L8695 0ZM9092 479L9092 590Q9092 840 9185 971Q9279 1102 9454 1102Q9609 1102 9696 976L9696 1536L9873 1536L9873 0L9711 0L9702 116Q9615 -20 9453 -20Q9285 -20 9189 110Q9094 241 9092 479ZM9269 597L9269 489Q9269 307 9323 221Q9377 136 9499 136Q9631 136 9696 269L9696 815Q9628 945 9500 945Q9378 945 9324 859Q9270 774 9269 597ZM10108 479L10108 590Q10108 840 10201 971Q10295 1102 10470 1102Q10625 1102 10712 976L10712 1536L10889 1536L10889 0L10727 0L10718 116Q10631 -20 10469 -20Q10301 -20 10205 110Q10110 241 10108 479ZM10285 597L10285 489Q10285 307 10339 221Q10393 136 10515 136Q10647 136 10712 269L10712 815Q10644 945 10516 945Q10394 945 10340 859Q10286 774 10285 597ZM11257 1082L11457 294L11654 1082L11842 1082L11488 -153Q11448 -292 11375 -365Q11302 -437 11209 -437Q11173 -437 11117 -421L11117 -271L11156 -275Q11233 -275 11276 -239Q11320 -202 11347 -112L11382 9L11064 1082L11257 1082Z" style="" fill="#143d59"></path></g></g></g></svg>